<svg xmlns="http://www.w3.org/2000/svg" viewBox="0 0 128 96" fill="none" stroke="#12402a" stroke-width="1.3" stroke-linecap="round" stroke-linejoin="round">
  <!-- A swimmer under the waterline, a fish and a coral -->
  <path d="M6 28 C18 22 28 34 40 28 C52 22 62 34 74 28 C86 22 96 34 108 28 C114 25 118 26 122 28"/>
  <circle cx="44" cy="46" r="6"/>
  <path d="M50 44 L60 36 L62 30"/>
  <path d="M40 52 C34 58 30 62 24 64 L12 66"/>
  <path d="M48 52 C60 54 70 52 82 56 L100 60"/>
  <path d="M44 58 L38 70 L30 74"/>
  <path d="M56 56 L72 66 L84 62"/>
  <path d="M100 44 C106 40 112 40 118 44 C112 48 106 48 100 44 Z"/>
  <path d="M118 44 L124 40 M118 44 L124 48"/>
  <path d="M16 88 C16 78 20 74 22 70 M22 88 C22 80 26 78 30 72 M28 88 C28 82 32 80 34 76"/>
  <path d="M8 90 H120" stroke-dasharray="2 4" opacity="0.6"/>
</svg>
